<svg enable-background="new 0 0 512 512" height="512" viewBox="0 0 512 512" width="512" xmlns="http://www.w3.org/2000/svg"><g fill="#ebc27b"><path d="m401.777 137.141h-291.554c-4.146 0-7.506 3.36-7.506 7.506s3.36 7.506 7.506 7.506h291.554c4.146 0 7.506-3.36 7.506-7.506s-3.36-7.506-7.506-7.506z"/><path d="m401.777 218.869h-291.554c-4.146 0-7.506 3.36-7.506 7.506 0 4.145 3.36 7.506 7.506 7.506h291.554c4.146 0 7.506-3.36 7.506-7.506s-3.36-7.506-7.506-7.506z"/><path d="m306.193 271.909h-100.386c-4.146 0-7.506 3.36-7.506 7.506 0 4.145 3.36 7.506 7.506 7.506h100.386c4.146 0 7.506-3.36 7.506-7.506s-3.36-7.506-7.506-7.506z"/><path d="m401.777 177.838h-217.474c-4.146 0-7.506 3.36-7.506 7.506 0 4.145 3.36 7.506 7.506 7.506h217.474c4.146 0 7.506-3.36 7.506-7.506s-3.36-7.506-7.506-7.506z"/><path d="m149.381 177.837h-39.158c-4.146 0-7.506 3.36-7.506 7.506s3.36 7.506 7.506 7.506h39.158c4.146 0 7.506-3.36 7.506-7.506 0-4.145-3.36-7.506-7.506-7.506z"/><path d="m473.251 124.455c-1.746-1.715-4.057-2.659-6.522-2.659-.002 0-.003 0-.005 0-15.213 0-27.664-11.892-28.349-27.078-.225-4.938-4.283-8.805-9.238-8.805h-348.06c-4.956 0-9.015 3.868-9.239 8.81-.653 14.511-12.532 26.391-27.044 27.044-4.94.222-8.809 4.281-8.809 9.239v194.021c0 4.958 3.869 9.016 8.809 9.238 14.512.654 26.391 12.533 27.044 27.049.225 4.938 4.284 8.805 9.239 8.805h221.577c4.146 0 7.506-3.36 7.506-7.506 0-4.145-3.36-7.506-7.506-7.506h-216.415c-3.103-18.079-17.164-32.14-35.243-35.244v-183.696c18.079-3.103 32.14-17.167 35.243-35.243h337.739c3.23 18.65 18.245 33.046 37.026 35.51v127.469c0 4.145 3.36 7.506 7.506 7.506s7.506-3.36 7.506-7.506v-132.855c0-2.499-.982-4.841-2.765-6.593z"/><path d="m491.165 48.445h-470.33c-11.488 0-20.835 9.347-20.835 20.835v317.47c0 11.489 9.347 20.835 20.835 20.835h315.048l-11.154 23.373c-1.433 3.001-1.084 6.52.908 9.182 1.993 2.663 5.272 3.986 8.553 3.461l20.766-3.338 11.583 19.013c1.624 2.668 4.51 4.278 7.611 4.278.151 0 .303-.004.455-.012 3.272-.166 6.181-2.106 7.594-5.064l20.126-42.173 20.124 42.17c1.41 2.958 4.319 4.9 7.592 5.068.153.008.307.012.459.012 3.101 0 5.987-1.61 7.611-4.277l11.583-19.013 20.766 3.339c3.291.526 6.564-.801 8.555-3.465 1.992-2.664 2.338-6.182.905-9.178l-11.154-23.373h22.399c11.488 0 20.835-9.346 20.835-20.835v-317.473c0-11.488-9.347-20.835-20.835-20.835zm-117.664 393.405-7.857-12.895c-1.892-3.106-5.434-4.74-9.028-4.163l-13.334 2.144 14.046-29.432c5.536 5.649 13.423 8.701 21.61 7.93 2.799-.268 5.605.486 7.898 2.115.756.538 1.541 1.015 2.336 1.465zm30.614-44.508c-.023.003-.046.005-.07.009-1.138.168-2.295.168-3.433.001-.029-.004-.058-.007-.086-.011-1.763-.273-3.477-.948-4.995-2.027-4.54-3.228-9.961-4.944-15.491-4.944-.838 0-1.678.04-2.518.119-4.969.469-9.69-2.26-11.764-6.792-.921-2.012-2.096-3.874-3.46-5.577-.06-.085-.126-.165-.189-.247-.076-.092-.147-.187-.223-.278-.087-.102-.178-.199-.271-.296-2.482-2.856-5.549-5.188-9.042-6.786-4.533-2.074-7.262-6.802-6.792-11.765.604-6.386-1.109-12.782-4.825-18.009-2.889-4.063-2.889-9.522-.001-13.585 3.717-5.227 5.43-11.623 4.826-18.009-.47-4.963 2.26-9.691 6.792-11.765 5.833-2.669 10.515-7.351 13.184-13.184 2.075-4.533 6.813-7.263 11.765-6.792 6.393.603 12.783-1.11 18.01-4.826 4.064-2.888 9.523-2.888 13.585 0 5.228 3.716 11.619 5.425 18.01 4.826 4.967-.472 9.692 2.26 11.766 6.792 2.669 5.833 7.351 10.515 13.183 13.183 4.533 2.075 7.263 6.803 6.793 11.765-.604 6.387 1.109 12.783 4.825 18.009 2.889 4.063 2.889 9.522 0 13.585-3.716 5.228-5.429 11.624-4.825 18.009.47 4.963-2.26 9.691-6.794 11.766-3.485 1.595-6.545 3.921-9.024 6.768-.102.106-.202.213-.296.324-.065.078-.126.159-.191.238-.075.096-.151.19-.221.289-1.36 1.7-2.532 3.558-3.45 5.565-2.075 4.532-6.803 7.263-11.766 6.792-6.38-.601-12.78 1.109-18.01 4.825-1.52 1.08-3.236 1.756-5.002 2.028zm43.918 27.449c-3.595-.575-7.135 1.058-9.028 4.165l-7.856 12.895-15.671-32.837c.795-.45 1.579-.927 2.336-1.465 2.294-1.63 5.102-2.386 7.898-2.116 8.19.772 16.075-2.28 21.611-7.929l14.045 29.431zm48.956-38.04c0 3.211-2.612 5.824-5.824 5.824h-29.563l-3.87-8.11c.195-.103.389-.211.591-.303 10.336-4.731 16.561-15.513 15.49-26.829-.265-2.8.486-5.605 2.116-7.898 6.586-9.265 6.586-21.715-.001-30.98-1.629-2.292-2.38-5.096-2.115-7.897 1.071-11.316-5.154-22.098-15.491-26.829-2.557-1.171-4.61-3.224-5.781-5.781-4.73-10.337-15.517-16.56-26.83-15.49-2.802.267-5.605-.486-7.897-2.116-9.265-6.586-21.716-6.587-30.98 0-2.293 1.63-5.104 2.383-7.897 2.115-11.33-1.066-22.1 5.154-26.829 15.49-1.171 2.558-3.224 4.61-5.782 5.781-10.336 4.731-16.561 15.512-15.49 26.829.265 2.801-.486 5.605-2.116 7.898-6.586 9.265-6.586 21.715 0 30.979 1.63 2.292 2.381 5.097 2.116 7.898-1.071 11.317 5.154 22.099 15.49 26.829.202.092.395.2.59.303l-3.87 8.111h-322.211c-3.211 0-5.824-2.612-5.824-5.824v-317.471c0-3.211 2.612-5.824 5.824-5.824h470.33c3.211 0 5.824 2.613 5.824 5.824z"/><path d="m401.777 287.312c-25.714 0-46.634 20.92-46.634 46.633 0 25.714 20.92 46.634 46.634 46.634s46.633-20.921 46.633-46.634c0-25.714-20.919-46.633-46.633-46.633zm0 78.255c-17.437 0-31.623-14.186-31.623-31.623 0-17.436 14.186-31.622 31.623-31.622 17.436 0 31.622 14.186 31.622 31.622 0 17.437-14.186 31.623-31.622 31.623z"/></g></svg>