<?xml version="1.0"?>
<svg xmlns="http://www.w3.org/2000/svg" height="512px" viewBox="0 -55 496 495" width="512px" class=""><g><path d="m248 .5-248 66.136719v252.296875l245.9375 65.574218 2.0625.550782 248-66.132813v-252.289062zm0 128-42.945312-11.457031 208.953124-55.71875 42.945313 11.457031zm-138.953125-37.054688 208.953125-55.722656 64.953125 17.320313-208.953125 55.722656zm-21.046875 10.949219 72 19.203125v36.710938l-72-19.640625zm198.945312-74.949219-208.945312 55.71875-38.953125-10.382812 208.953125-55.722656zm-270.945312 55.75 56 14.9375v52.757813l104 28.363281v-53.394531l64 17.066406v223.4375l-64-17.0625v-58.625l-104-28.375v59.261719l-56-14.933594zm144 261.832032-72-19.199219v-42.566406l72 19.628906zm96 21.335937v-223.4375l224-59.738281v223.441406zm0 0" data-original="#000000" class="active-path" data-old_color="#000000" fill="#EBC27A"/><path d="m448 280.78125h16v16h-16zm0 0" data-original="#000000" class="active-path" data-old_color="#000000" fill="#EBC27A"/><path d="m416 288.78125h16v16h-16zm0 0" data-original="#000000" class="active-path" data-old_color="#000000" fill="#EBC27A"/><path d="m384 296.78125h16v16h-16zm0 0" data-original="#000000" class="active-path" data-old_color="#000000" fill="#EBC27A"/></g> </svg>
