<svg enable-background="new 0 0 512 512" height="512" viewBox="0 0 512 512" width="512" xmlns="http://www.w3.org/2000/svg"><path d="m490.24 113.92c-13.888-24.704-28.96-29.248-59.648-30.976-30.656-2.08-107.744-2.944-174.528-2.944-66.912 0-144.032.864-174.656 2.912-30.624 1.76-45.728 6.272-59.744 31.008-14.304 24.672-21.664 67.168-21.664 141.984v.096.096.064c0 74.496 7.36 117.312 21.664 141.728 14.016 24.704 29.088 29.184 59.712 31.264 30.656 1.792 107.776 2.848 174.688 2.848 66.784 0 143.872-1.056 174.56-2.816 30.688-2.08 45.76-6.56 59.648-31.264 14.432-24.416 21.728-67.232 21.728-141.728 0 0 0-.096 0-.16 0 0 0-.064 0-.096 0-74.848-7.296-117.344-21.76-142.016zm-298.24 238.08v-192l160 96z" fill="#f9e8dc"/></svg>